<svg width="100" height="32" viewBox="0 0 100 32" fill="none" xmlns="http://www.w3.org/2000/svg">
<rect width="100" height="32" rx="16" fill="white"/>
<path d="M12.8374 20.5L13.7053 17.9979H17.3984L18.2617 20.5H19.7759L16.3736 11.0455H14.7255L11.3232 20.5H12.8374ZM14.1207 16.7976L15.5149 12.7628H15.5888L16.983 16.7976H14.1207ZM21.0305 20.5H22.4108V17.6655H23.3064L25.4438 20.5H27.1565L24.3774 16.8576L27.1242 13.4091H25.4161L23.0756 16.3821H22.4108V13.4091H21.0305V20.5ZM28.2287 20.5H29.609V17.6655H30.5046L32.642 20.5H34.3548L31.5756 16.8576L34.3224 13.4091H32.6143L30.2738 16.3821H29.609V13.4091H28.2287V20.5ZM37.4905 20.657C38.6631 20.657 39.3232 20.0614 39.5864 19.5305H39.6418V20.5H40.9898V15.7912C40.9898 13.7276 39.3648 13.3168 38.2384 13.3168C36.955 13.3168 35.7732 13.8338 35.3115 15.1264L36.6088 15.4219C36.8119 14.9187 37.3289 14.4339 38.2568 14.4339C39.1478 14.4339 39.6048 14.9002 39.6048 15.7035V15.7358C39.6048 16.239 39.0878 16.2298 37.8137 16.3775C36.4703 16.5344 35.0945 16.8853 35.0945 18.4964C35.0945 19.8906 36.1425 20.657 37.4905 20.657ZM37.7906 19.549C37.0104 19.549 36.4472 19.1982 36.4472 18.5149C36.4472 17.7763 37.1027 17.5131 37.9014 17.407C38.3492 17.3469 39.411 17.2269 39.6095 17.0284V17.9425C39.6095 18.7827 38.9401 19.549 37.7906 19.549ZM43.4469 23.1591C44.5872 23.1591 45.3074 22.5636 45.7182 21.4464L48.6497 13.4229L47.1586 13.4091L45.3627 18.9119H45.2889L43.4931 13.4091H42.0158L44.6103 20.5923L44.4395 21.0632C44.0886 22.005 43.5946 22.0835 42.8375 21.8757L42.5051 23.0067C42.6713 23.0806 43.0314 23.1591 43.4469 23.1591ZM51.303 13.4091H49.9504V20.5H51.303V17.5547H54.373V20.5H55.721V13.4091H54.373V16.359H51.303V13.4091ZM56.6881 14.6001H59.0102V20.5H60.3582V14.6001H62.6711V13.4091H56.6881V14.6001Z" fill="#222222"/>
<rect x="71" y="3" width="26" height="26" rx="13" fill="#F5F5F5"/>
<path fill-rule="evenodd" clip-rule="evenodd" d="M85.4297 17.9678C86.7916 17.4057 87.75 16.0648 87.75 14.5C87.75 12.4289 86.071 10.75 84 10.75C81.9289 10.75 80.25 12.4289 80.25 14.5C80.25 16.0647 81.2083 17.4056 82.5701 17.9677C81.1754 18.1999 79.8925 18.7659 78.8082 19.5806L80.1898 21.4194C81.2511 20.6221 82.5686 20.15 83.9997 20.15C85.4309 20.15 86.7484 20.6221 87.8097 21.4194L89.1912 19.5806C88.1071 18.766 86.8243 18.2 85.4297 17.9678Z" fill="black"/>
</svg>
